<svg xmlns="http://www.w3.org/2000/svg" fill="none" viewBox="0 0 32 32" id="RemoveUser">
  <path fill="#3854bd" fill-rule="evenodd" d="M16 4C12.6863 4 10 6.68629 10 10 10 13.3137 12.6863 16 16 16 19.3137 16 22 13.3137 22 10 22 6.68629 19.3137 4 16 4zM13 17.9297C11.1435 17.9297 9.36301 18.6672 8.05025 19.9799 6.7375 21.2927 6 23.0732 6 24.9297 6 25.7253 6.31607 26.4884 6.87868 27.051 7.44129 27.6136 8.20435 27.9297 9 27.9297H18C18.5523 27.9297 19 27.482 19 26.9297V24.8182C19 23.7315 19.253 22.6597 19.739 21.6877L20.8944 19.3769C21.0494 19.0669 21.0329 18.6988 20.8507 18.404 20.6684 18.1091 20.3466 17.9297 20 17.9297H13z" clip-rule="evenodd" class="color5233ff svgShape"></path>
  <path fill="#a365db" fill-rule="evenodd" d="M27.8287 23.586C28.2192 23.1955 28.2192 22.5623 27.8287 22.1718C27.4381 21.7813 26.805 21.7813 26.4144 22.1718L25.0002 23.586L23.5862 22.1719C23.1956 21.7814 22.5625 21.7814 22.172 22.1719C21.7814 22.5625 21.7814 23.1956 22.172 23.5861L23.586 25.0002L22.1718 26.4144C21.7813 26.805 21.7813 27.4381 22.1718 27.8287C22.5623 28.2192 23.1955 28.2192 23.586 27.8287L25.0002 26.4144L26.4146 27.8288C26.8051 28.2193 27.4383 28.2193 27.8288 27.8288C28.2193 27.4383 28.2193 26.8051 27.8288 26.4146L26.4145 25.0002L27.8287 23.586Z" clip-rule="evenodd" class="colorff64c8 svgShape"></path>
</svg>
