<svg xmlns="http://www.w3.org/2000/svg" viewBox="0 0 64 64" id="Edit">
  <defs>
    <linearGradient id="a" x1="4" x2="60" y1="32" y2="32" gradientUnits="userSpaceOnUse">
      <stop offset="0" stop-color="#3854bd" class="stopColorffa68d svgShape"></stop>
      <stop offset="1" stop-color="#a365db" class="stopColorfd3a84 svgShape"></stop>
    </linearGradient>
  </defs>
  <path fill="url(#a)" d="M48,4H16A12.00951,12.00951,0,0,0,4,16V48A12.00951,12.00951,0,0,0,16,60H48A12.00951,12.00951,0,0,0,60,48V16A12.00951,12.00951,0,0,0,48,4ZM45.63,16.99c-.67058,1.23549-15.62627,29.52453-16.7,31.55a1.1866,1.1866,0,0,1-.38.4l-5.84,4.55c-1.62611,1.28173-4.54075-.31976-4.33-2.31l.47-7.45a1.17268,1.17268,0,0,1,.11-.47L33.89,15.08l.02-.04,1.76-3.32A4.01373,4.01373,0,0,1,41.08,10.05l2.88,1.52A4.03084,4.03084,0,0,1,45.63,16.99ZM41.05,20l.56.3L27.27,47.41l-5.78,4.49995c-.2458.21553-1.15777-.298-1.12-.58L20.84,44c-.00277-.00168,14.36309-27.11,14.35-27.11Zm2.81-3.95-1.31,2.48c-1.16105-.622-5.19567-2.74879-6.43-3.4v-.01l1.31-2.47a2.02217,2.02217,0,0,1,2.72-.83l2.87,1.52A2.00442,2.00442,0,0,1,43.86,16.05Z"></path>
</svg>
