<svg xmlns="http://www.w3.org/2000/svg" viewBox="0 0 64 64" id="History">
  <defs>
    <linearGradient id="a" x1="7.855" x2="56.145" y1="32" y2="32" gradientUnits="userSpaceOnUse">
      <stop offset="0" stop-color="#a365db" class="stopColor00c0ff svgShape"></stop>
      <stop offset="1" stop-color="#3854bd" class="stopColor5558ff svgShape"></stop>
    </linearGradient>
  </defs>
  <path fill="url(#a)" d="M30.145,48c-.15735-9.32434,9.4842-16.309,18.2901-13.3299-.13385-4.6358.60858-12.80389-1.27008-17.10009H39.855a5.0019,5.0019,0,0,1-5-5v-7.29A20.64532,20.64532,0,0,0,27.675,4H12.855a5.00824,5.00824,0,0,0-5,5V55a5.00824,5.00824,0,0,0,5,5h24.1A13.97179,13.97179,0,0,1,30.145,48ZM14.91508,21H41.375a1.00012,1.00012,0,0,1,0,2H14.915A1.00012,1.00012,0,0,1,14.91508,21Zm-.00006,9.33h26.46a1.00011,1.00011,0,0,1,0,2H14.915a1,1,0,1,1,0-2ZM28.285,51H14.915a1.00012,1.00012,0,0,1,.00006-2H28.285A1.00012,1.00012,0,0,1,28.285,51Zm-13.37-9.33a1.00012,1.00012,0,0,1,.00006-2H30.065a1.00012,1.00012,0,0,1,0,2ZM36.855,12.57V6.13a20.98139,20.98139,0,0,1,9.45,9.44h-6.45A3.00887,3.00887,0,0,1,36.855,12.57Zm11.58,24.22c-7.62555-3.07007-16.45,2.96075-16.28985,11.21014A11.99994,11.99994,0,1,0,48.435,36.79ZM49.755,49h-5.61a1.003,1.003,0,0,1-1-1V41a1,1,0,0,1,2,0v6h4.61A1.00012,1.00012,0,0,1,49.755,49Z"></path>
</svg>
