<svg xmlns="http://www.w3.org/2000/svg" enable-background="new 0 0 512 512" viewBox="0 0 512 512" id="TwoWay">
  <linearGradient id="a" x1="256" x2="256" y1="263.271" y2="8.748" gradientUnits="userSpaceOnUse">
    <stop offset="0" stop-color="#a365db" class="stopColorfe652b svgShape"></stop>
    <stop offset="1" stop-color="#a949ff" class="stopColorffff49 svgShape"></stop>
  </linearGradient>
  <path fill="url(#a)" d="M331.77,263.271v-65.028H75.886c-33.158,0-60.014-26.856-60.014-60.013V13.76
			c0,33.087,26.856,59.943,60.014,59.943H331.77V8.748l164.358,127.262L331.77,263.271z"></path>
  <linearGradient id="b" x1="256" x2="256" y1="503.248" y2="248.725" gradientUnits="userSpaceOnUse">
    <stop offset="0" stop-color="#002ac9" class="stopColor00c900 svgShape"></stop>
    <stop offset="1" stop-color="#073afa" class="stopColor07fafa svgShape"></stop>
  </linearGradient>
  <path fill="url(#b)" d="M180.231,248.725v65.028h255.883c33.158,0,60.014,26.856,60.014,60.013v124.469
			c0-33.087-26.856-59.943-60.014-59.943H180.231v64.956L15.872,375.987L180.231,248.725z"></path>
  <path fill="#3854bd" d="M500.871 129.884L336.509 2.618c-2.337-1.8-5.499-2.133-8.155-.825-2.655 1.301-4.334 3.994-4.334 6.952v57.21H75.885c-28.821 0-52.267-23.412-52.267-52.195 0-4.282-3.468-7.746-7.746-7.746s-7.746 3.465-7.746 7.746v124.467c0 37.361 30.398 67.763 67.759 67.763H324.02v57.279c0 6.441 7.417 10.035 12.489 6.127l164.362-127.258C504.567 139.27 504.914 133.021 500.871 129.884zM331.766 190.498H75.885c-28.821 0-52.267-23.45-52.267-52.271v-81.44c12.44 15.053 31.249 24.66 52.267 24.66h255.881c4.282 0 7.746-3.465 7.746-7.746V24.54l133.957 103.725H148.932c-4.278 0-7.746 3.465-7.746 7.746 0 4.282 3.468 7.746 7.746 7.746h324.536L339.512 247.474v-49.23C339.512 193.963 336.048 190.498 331.766 190.498zM436.111 306.008H187.976v-57.286c0-2.958-1.683-5.651-4.334-6.952-2.651-1.316-5.813-.976-8.155.825L11.129 369.86c-4.193 3.261-3.652 9.414 0 12.255l164.358 127.258c5.102 3.931 12.489.291 12.489-6.127v-57.21h248.135c28.821 0 52.271 23.42 52.271 52.203 0 4.282 3.465 7.746 7.746 7.746 4.281 0 7.746-3.465 7.746-7.746V373.764C503.874 336.403 473.472 306.008 436.111 306.008zM488.382 455.203c-12.436-15.053-31.257-24.66-52.271-24.66H180.23c-4.278 0-7.746 3.465-7.746 7.746v49.162L38.528 383.734h324.54c4.282 0 7.746-3.465 7.746-7.746 0-4.281-3.465-7.746-7.746-7.746H38.527l133.957-103.725v49.237c0 4.282 3.468 7.746 7.746 7.746h255.881c28.821 0 52.271 23.442 52.271 52.263V455.203z" class="color07028f svgShape"></path>
</svg>
