<svg xmlns="http://www.w3.org/2000/svg" fill-rule="evenodd" clip-rule="evenodd" image-rendering="optimizeQuality" shape-rendering="geometricPrecision" text-rendering="geometricPrecision" viewBox="0 0 512 512" id="Mathematics">
  <defs>
    <linearGradient id="a" x1="471.541" x2="40.459" y1="256" y2="256" gradientUnits="userSpaceOnUse">
      <stop offset="0" stop-color="#a365db" class="stopColorf071ab svgShape"></stop>
      <stop offset="1" stop-color="#3854bd" class="stopColor22abe2 svgShape"></stop>
    </linearGradient>
  </defs>
  <path fill="url(#a)" d="M132 393l0 -387c0,-3 3,-6 6,-6l315 0c10,0 19,8 19,18l0 375 -340 0zm-92 28l0 -369c0,-29 24,-52 52,-52l28 0 0 393 -26 0c-22,0 -42,11 -54,28zm419 91l-365 0c-30,0 -54,-24 -54,-53 0,-30 24,-54 54,-54l372 0c1,0 3,1 4,2 1,1 2,3 2,4l0 88c0,7 -6,13 -13,13zm-46 -47l-314 0c-3,0 -6,-3 -6,-6 0,-4 3,-6 6,-6l314 0c3,0 6,2 6,6 0,3 -3,6 -6,6zm15 -207l-126 0 -126 0c-4,0 -6,-3 -6,-6l0 -107 0 -106c0,-3 2,-6 6,-6l126 0 126 0c3,0 6,3 6,6l0 106 0 107c0,3 -3,6 -6,6zm-132 -12l0 -95 -114 0 0 95 114 0zm-114 -107l114 0 0 -94 -114 0 0 94zm126 -94l0 94 114 0 0 -94 -114 0zm114 106l-114 0 0 95 114 0 0 -95zm-73 -37c-2,0 -3,0 -4,-2 -3,-2 -3,-6 0,-8l11 -12 -14 -14c-3,-3 -3,-6 0,-9 2,-2 6,-2 8,0l15 15 12 -12c2,-2 6,-2 8,0 2,3 2,6 0,9l-12 11 15 15c2,2 2,6 0,8 -1,2 -3,2 -4,2 -2,0 -3,0 -4,-2l-15 -14 -12 11c-1,2 -2,2 -4,2zm-84 91l-53 0c-3,0 -6,-3 -6,-6 0,-4 3,-6 6,-6l53 0c4,0 6,2 6,6 0,3 -2,6 -6,6zm-26 -84c-4,0 -6,-3 -6,-6l0 -17 -21 0c-3,0 -6,-2 -6,-6 0,-3 3,-6 6,-6l21 0 0 -16c0,-3 2,-6 6,-6 3,0 6,3 6,6l0 16 20 0c4,0 6,3 6,6 0,4 -2,6 -6,6l-20 0 0 17c0,3 -3,6 -6,6zm153 69l-54 0c-3,0 -6,-3 -6,-6 0,-3 3,-6 6,-6l54 0c3,0 6,3 6,6 0,3 -3,6 -6,6zm0 29l-54 0c-3,0 -6,-3 -6,-6 0,-3 3,-6 6,-6l54 0c3,0 6,3 6,6 0,3 -3,6 -6,6zm16 88l-212 0c-4,0 -6,-2 -6,-6 0,-3 2,-6 6,-6l212 0c3,0 6,3 6,6 0,4 -3,6 -6,6zm20 53l-252 0c-4,0 -6,-3 -6,-6 0,-3 2,-6 6,-6l252 0c3,0 6,3 6,6 0,3 -3,6 -6,6z"></path>
</svg>
