<svg xmlns="http://www.w3.org/2000/svg" viewBox="0 0 64 64" id="membership">
  <defs>
    <linearGradient id="a" x1="4" x2="60" y1="32" y2="32" gradientUnits="userSpaceOnUse">
      <stop offset="0" stop-color="#3854bd" class="stopColorfede00 svgShape"></stop>
      <stop offset="1" stop-color="#a365db" class="stopColorf15b22 svgShape"></stop>
    </linearGradient>
  </defs>
  <path fill="url(#a)" d="M55.02,13.8H8.98A4.98045,4.98045,0,0,0,4,18.78V45.22A4.9805,4.9805,0,0,0,8.98,50.2H55.02A4.9805,4.9805,0,0,0,60,45.22V18.78A4.98045,4.98045,0,0,0,55.02,13.8ZM24.2,37.55a.27624.27624,0,0,0,.2.2c1.63877.415,6.44493,2.53153,6.19986,5.67a1,1,0,1,1-1.9999,0c-.03358-2.18121-3.83248-3.43479-4.75987-3.75008A2.28239,2.28239,0,0,1,22.77,35.96a7.28381,7.28381,0,0,0,1.46-4.29,1.01731,1.01731,0,0,1,1.05-.95,1.004,1.004,0,0,1,.95,1.05A9.10511,9.10511,0,0,1,24.24,37.32.23469.23469,0,0,0,24.2,37.55Zm3.25-9.26a1.01418,1.01418,0,0,1-1,.89H14.71a.997.997,0,0,1-.99005-.89l-.82-7.04a.98974.98974,0,0,1,.45-.95.97368.97368,0,0,1,1.05-.02l3.13,1.86,2.28-2.75a1.03172,1.03172,0,0,1,1.54,0l2.28,2.75,3.13-1.86a1.01013,1.01013,0,0,1,1.51.97006ZM16.77,37.75c.20435-.08389.26408-.26241.16-.41a9.11134,9.11134,0,0,1-2-5.57,1.00409,1.00409,0,0,1,.95-1.05,1.01726,1.01726,0,0,1,1.05.95,7.34948,7.34948,0,0,0,1.48,4.32,2.1914,2.1914,0,0,1,.46,2.17,2.30476,2.30476,0,0,1-1.54,1.51c-.73261.25041-4.74527,1.54129-4.77011,3.74993A1,1,0,1,1,10.56,43.42C10.30888,40.29289,15.14824,38.15667,16.77,37.75Zm17.58,0a.99654.99654,0,0,1,1-1H52.44a1,1,0,0,1,0,2H35.35A.99029.99029,0,0,1,34.35,37.75Zm18.09-5.03H35.35a1.00009,1.00009,0,0,1,0-2H52.44A1.00011,1.00011,0,0,1,52.44,32.72ZM34.35,25.69a.99654.99654,0,0,1,1-1h7.23a1,1,0,0,1,0,2H35.35A.99654.99654,0,0,1,34.35,25.69ZM23.92,24.3l2.12-1.27-.48,4.15H15.6l-.48-4.15,2.12,1.27a1.01256,1.01256,0,0,0,1.29-.22l2.05-2.49,2.06,2.49A.99907.99907,0,0,0,23.92,24.3Z"></path>
</svg>
