<svg xmlns="http://www.w3.org/2000/svg" enable-background="new 0 0 128 128" viewBox="0 0 128 128" id="Progress">
  <path fill="#3854bd" d="M125.5,7.4L98.3,9.7c-0.6,0.1-0.9,0.8-0.4,1.2l6.9,6.5l-1.5,1.6l-1,1l-5.2,5.4c-2,2.1-4,4.2-5.9,6.3
		c-1.4,1.5-2.8,3-4.2,4.6c-3.3,3.7-6.7,7.4-9.9,11.1c-1.6,1.9-3.2,3.8-4.8,5.7c-0.4,0.5-0.8,1-1.3,1.5l-1.7-1L42.7,38.6l-4.2-2.4
		l-3,3.3l-3.8,4.1L1.7,76.3L8,82.4l32.4-31.2h0l18.9,12.3l9.7,6.3l3.5,2.3l0.8,0.5l4.6-4c1.9-1.6,3.7-3.3,5.5-5
		c1.8-1.7,3.6-3.4,5.4-5.1c3.6-3.4,7.1-7,10.6-10.5c3.5-3.5,6.9-7.1,10.3-10.7l5.1-5.4l0.7-0.7l1.8-2l6.6,6.2
		c0.4,0.4,1.2,0.1,1.2-0.5l1.4-26.7C126.3,7.7,126,7.3,125.5,7.4z" class="color2e79be svgShape"></path>
  <path fill="#a365db" d="M8.1 118.3c0 1.3 1 2.3 2.3 2.3h16.2c1.3 0 2.3-1 2.3-2.3V71L8.1 91.2V118.3zM37.1 63.2v55.1c0 1.3 1 2.3 2.3 2.3h16.2c1.3 0 2.3-1 2.3-2.3v-48l-16.8-11L37.1 63.2zM73.9 80.6L66 75.5v42.8c0 1.3 1 2.3 2.3 2.3h16.2c1.3 0 2.3-1 2.3-2.3V69.1c-1.6 1.4-3.2 2.9-4.8 4.4L73.9 80.6zM103.9 52.5c-3.2 3.3-6.1 6.2-8.9 8.9v56.9c0 1.3 1 2.3 2.3 2.3h16.2c1.3 0 2.3-1 2.3-2.3V40l-1.6 1.7C111 45.1 107.5 48.8 103.9 52.5z" class="color2d3e50 svgShape"></path>
</svg>
