<svg xmlns="http://www.w3.org/2000/svg" viewBox="0 0 48 48" id="science">
  <defs>
    <linearGradient id="a" x1="10" x2="38" y1="24" y2="24" gradientUnits="userSpaceOnUse">
      <stop offset="0" stop-color="#3854bd" class="stopColor3366ff svgShape"></stop>
      <stop offset="1" stop-color="#a365db" class="stopColor42008e svgShape"></stop>
    </linearGradient>
  </defs>
  <path fill="url(#a)" d="M24,12v-2h13.8394775c.1000977-.7676392,.1605225-1.5471191,.1605225-2.3400269v-1.6599731c0-1.0999756-.9000244-2-2-2H12c-1.0999756,0-2,.9000244-2,2v1.6599731c0,7.25,4.2999878,13.5900269,10.7700195,16.3400269-3.0466919,1.2949829-5.6029663,3.3927612-7.4649048,6h10.6948853v2H12.0688477c-.6640015,1.2547607-1.180481,2.5947876-1.5300293,4h13.4611816v2H10.1604614c-.1000977,.7676392-.1604614,1.5470581-.1604614,2.3399658v1.6600342c0,1.0999756,.9000244,2,2,2h24c1.0999756,0,2-.9000244,2-2v-1.6600342c0-7.249939-4.2999878-13.5899658-10.7700195-16.3399658,3.0466919-1.2949829,5.6029663-3.3927612,7.4649048-6h-10.6948853v-2h11.9311523c.6640015-1.2546997,1.180481-2.5948486,1.5300293-4h-13.4611816Z"></path>
</svg>
