<svg xmlns="http://www.w3.org/2000/svg" viewBox="0 0 64 64" id="Puzzle">
  <defs>
    <linearGradient id="a" x1="7.65" x2="56.35" y1="32" y2="32" gradientUnits="userSpaceOnUse">
      <stop offset="0" stop-color="#3854bd" class="stopColorff81ff svgShape"></stop>
      <stop offset="1" stop-color="#a365db" class="stopColora93aff svgShape"></stop>
    </linearGradient>
  </defs>
  <path fill="url(#a)" d="M47.71028,29.28a5.87274,5.87274,0,0,1,8.64-1.98988l0-14.98009a1.00291,1.00291,0,0,0-1-1h-14.03a5.85007,5.85007,0,1,0-11.33,0l-14.03,0a1.00291,1.00291,0,0,0-1,1V26.33a5.854,5.854,0,1,0,.00005,11.34L14.96028,51.69a1.00292,1.00292,0,0,0,1,1h14.03a5.85007,5.85007,0,1,0,11.33-.00006l14.03.00006a1.00292,1.00292,0,0,0,1-1V36.72C51.38067,40.33942,44.84673,34.72987,47.71028,29.28Zm-1.85-6.9-4.62,19.69a1.00052,1.00052,0,0,1-1.91.10993L35.65028,31.76l-3.67,10.42a.99705.99705,0,0,1-1.91-.11l-4.62-19.69a1.00063,1.00063,0,0,1,1.95-.45l3.83,16.36,3.48-9.87a1.00784,1.00784,0,0,1,1.89.00005l3.48,9.86994,3.82995-16.36A1.00075,1.00075,0,0,1,45.86024,22.38Z"></path>
</svg>
